<svg width="341" height="63" viewBox="0 0 341 63" fill="none" xmlns="http://www.w3.org/2000/svg">
<path d="M22.2599 52.6515C21.5807 52.0049 21.5807 50.9565 22.2599 50.3099L49.1575 24.7037C51.8745 22.1172 56.2796 22.1172 58.9966 24.7037L64.8643 30.2897C65.5435 30.9363 65.5435 31.9847 64.8643 32.6313L37.9667 58.2375C35.2497 60.824 30.8446 60.824 28.1276 58.2375L22.2599 52.6515Z" fill="#1E2D3E"/>
<path d="M22.2599 52.6515C21.5807 52.0049 21.5807 50.9565 22.2599 50.3099L49.1575 24.7037C51.8745 22.1172 56.2796 22.1172 58.9966 24.7037L64.8643 30.2897C65.5435 30.9363 65.5435 31.9847 64.8643 32.6313L37.9667 58.2375C35.2497 60.824 30.8446 60.824 28.1276 58.2375L22.2599 52.6515Z" fill="url(#paint0_linear_55_6831)"/>
<path d="M4.91978 36.1438C2.20279 33.5573 2.20279 29.3637 4.91977 26.7772L10.7875 21.1912C11.4667 20.5446 12.568 20.5446 13.2472 21.1912L28.8131 36.0097C29.4924 36.6564 29.4924 37.7048 28.8131 38.3514L19.2558 47.4498C18.5765 48.0965 17.4753 48.0965 16.796 47.4498L4.91978 36.1438Z" fill="#1E2D3E"/>
<path d="M4.91978 36.1438C2.20279 33.5573 2.20279 29.3637 4.91977 26.7772L10.7875 21.1912C11.4667 20.5446 12.568 20.5446 13.2472 21.1912L28.8131 36.0097C29.4924 36.6564 29.4924 37.7048 28.8131 38.3514L19.2558 47.4498C18.5765 48.0965 17.4753 48.0965 16.796 47.4498L4.91978 36.1438Z" fill="url(#paint1_linear_55_6831)"/>
<path d="M19.9415 21.8437C17.2245 19.2571 17.2245 15.0635 19.9415 12.477L31.8177 1.17097C32.497 0.524339 33.5983 0.524339 34.2775 1.17097L46.1537 12.477C48.8707 15.0635 48.8707 19.2571 46.1537 21.8437L34.2775 33.1497C33.5983 33.7963 32.497 33.7963 31.8177 33.1497L19.9415 21.8437Z" fill="#1E2D3E"/>
<path d="M19.9415 21.8437C17.2245 19.2571 17.2245 15.0635 19.9415 12.477L31.8177 1.17097C32.497 0.524339 33.5983 0.524339 34.2775 1.17097L46.1537 12.477C48.8707 15.0635 48.8707 19.2571 46.1537 21.8437L34.2775 33.1497C33.5983 33.7963 32.497 33.7963 31.8177 33.1497L19.9415 21.8437Z" fill="url(#paint2_linear_55_6831)"/>
<path d="M77.2178 42.4605V12.8605H90.8978C92.8178 12.8605 94.4311 13.1938 95.7378 13.8605C97.0711 14.5272 98.0845 15.4205 98.7778 16.5405C99.4711 17.6338 99.8178 18.8472 99.8178 20.1805C99.8178 21.4872 99.5778 22.5805 99.0978 23.4605C98.6178 24.3138 98.0311 25.0072 97.3378 25.5405C96.6711 26.0472 96.0178 26.3938 95.3778 26.5805V26.9005C96.0978 27.0605 96.8978 27.4072 97.7778 27.9405C98.6578 28.4738 99.4178 29.2338 100.058 30.2205C100.698 31.2072 101.018 32.4872 101.018 34.0605C101.018 35.4472 100.684 36.7805 100.018 38.0605C99.3778 39.3405 98.3245 40.3938 96.8578 41.2205C95.4178 42.0472 93.5378 42.4605 91.2178 42.4605H77.2178ZM89.8578 18.0205H83.3778V24.9005H89.8578C91.2445 24.9005 92.2578 24.5672 92.8978 23.9005C93.5378 23.2338 93.8578 22.4205 93.8578 21.4605C93.8578 20.5272 93.5378 19.7272 92.8978 19.0605C92.2578 18.3672 91.2445 18.0205 89.8578 18.0205ZM90.3378 29.6205H83.3778V37.3005H90.3378C91.9111 37.3005 93.0445 36.9272 93.7378 36.1805C94.4578 35.4072 94.8178 34.4872 94.8178 33.4205C94.8178 32.3805 94.4578 31.4872 93.7378 30.7405C93.0445 29.9938 91.9111 29.6205 90.3378 29.6205ZM105.577 42.4605V12.0605H111.657V42.4605H105.577ZM120.301 18.3805C119.234 18.3805 118.367 18.0472 117.701 17.3805C117.034 16.6872 116.701 15.8738 116.701 14.9405C116.701 13.9538 117.034 13.1272 117.701 12.4605C118.367 11.7672 119.234 11.4205 120.301 11.4205C121.314 11.4205 122.167 11.7672 122.861 12.4605C123.554 13.1272 123.901 13.9538 123.901 14.9405C123.901 15.8738 123.554 16.6872 122.861 17.3805C122.167 18.0472 121.314 18.3805 120.301 18.3805ZM117.261 42.4605V21.2605H123.341V42.4605H117.261ZM128.537 42.4605V21.2605H134.617V24.3005H134.817C135.057 23.8738 135.403 23.3938 135.857 22.8605C136.337 22.3272 136.963 21.8605 137.737 21.4605C138.537 21.0605 139.55 20.8605 140.777 20.8605C142.43 20.8605 143.777 21.2472 144.817 22.0205C145.857 22.7672 146.617 23.7405 147.097 24.9405C147.577 26.1138 147.817 27.3538 147.817 28.6605V42.4605H141.737V29.7005C141.737 28.6872 141.457 27.7938 140.897 27.0205C140.363 26.2472 139.497 25.8605 138.297 25.8605C137.39 25.8605 136.67 26.0738 136.137 26.5005C135.603 26.9272 135.217 27.4738 134.977 28.1405C134.737 28.8072 134.617 29.5138 134.617 30.2605V42.4605H128.537ZM161.248 42.8605C159.675 42.8605 158.302 42.5538 157.128 41.9405C155.982 41.3005 155.022 40.4605 154.248 39.4205C153.475 38.3538 152.888 37.1672 152.488 35.8605C152.115 34.5538 151.928 33.2205 151.928 31.8605C151.928 30.5005 152.115 29.1672 152.488 27.8605C152.888 26.5538 153.475 25.3805 154.248 24.3405C155.022 23.2738 155.982 22.4338 157.128 21.8205C158.302 21.1805 159.675 20.8605 161.248 20.8605C162.608 20.8605 163.728 21.0872 164.608 21.5405C165.488 21.9672 166.155 22.4338 166.608 22.9405C167.088 23.4472 167.382 23.7938 167.488 23.9805H167.808V12.0605H173.888V42.4605H167.808V39.7405H167.488C167.382 39.9272 167.088 40.2738 166.608 40.7805C166.155 41.2872 165.488 41.7672 164.608 42.2205C163.728 42.6472 162.608 42.8605 161.248 42.8605ZM163.008 37.9405C164.102 37.9405 165.008 37.6472 165.728 37.0605C166.475 36.4472 167.022 35.6738 167.368 34.7405C167.742 33.8072 167.928 32.8472 167.928 31.8605C167.928 30.8738 167.742 29.9138 167.368 28.9805C167.022 28.0472 166.475 27.2872 165.728 26.7005C165.008 26.0872 164.102 25.7805 163.008 25.7805C161.915 25.7805 160.995 26.0872 160.248 26.7005C159.528 27.2872 158.982 28.0472 158.608 28.9805C158.262 29.9138 158.088 30.8738 158.088 31.8605C158.088 32.8472 158.262 33.8072 158.608 34.7405C158.982 35.6738 159.528 36.4472 160.248 37.0605C160.995 37.6472 161.915 37.9405 163.008 37.9405ZM187.847 42.8605C186.087 42.8605 184.634 42.6205 183.487 42.1405C182.341 41.6605 181.421 41.0738 180.727 40.3805C180.061 39.6605 179.554 38.9538 179.207 38.2605C178.887 37.5405 178.674 36.9405 178.567 36.4605C178.487 35.9805 178.447 35.7405 178.447 35.7405H184.087C184.087 35.7405 184.127 35.8738 184.207 36.1405C184.287 36.4072 184.461 36.7138 184.727 37.0605C185.021 37.4072 185.434 37.7138 185.967 37.9805C186.501 38.2472 187.221 38.3805 188.127 38.3805C189.247 38.3805 190.007 38.1538 190.407 37.7005C190.834 37.2472 191.047 36.7938 191.047 36.3405C191.047 35.3805 190.261 34.7405 188.687 34.4205L185.807 33.8605C184.581 33.6205 183.421 33.2738 182.327 32.8205C181.261 32.3405 180.394 31.6872 179.727 30.8605C179.087 30.0072 178.767 28.9138 178.767 27.5805C178.767 26.3005 179.101 25.1538 179.767 24.1405C180.434 23.1272 181.381 22.3272 182.607 21.7405C183.861 21.1538 185.354 20.8605 187.087 20.8605C188.714 20.8605 190.061 21.0872 191.127 21.5405C192.221 21.9672 193.087 22.5138 193.727 23.1805C194.367 23.8205 194.847 24.4738 195.167 25.1405C195.487 25.7805 195.687 26.3272 195.767 26.7805C195.874 27.2072 195.927 27.4205 195.927 27.4205H190.487C190.487 27.4205 190.407 27.2472 190.247 26.9005C190.087 26.5272 189.754 26.1672 189.247 25.8205C188.767 25.4472 188.021 25.2605 187.007 25.2605C185.967 25.2605 185.247 25.4738 184.847 25.9005C184.447 26.3005 184.247 26.7272 184.247 27.1805C184.247 27.7138 184.474 28.1138 184.927 28.3805C185.407 28.6472 186.021 28.8605 186.767 29.0205L189.527 29.5805C191.554 29.9805 193.221 30.6872 194.527 31.7005C195.834 32.6872 196.487 34.1272 196.487 36.0205C196.487 37.3005 196.154 38.4605 195.487 39.5005C194.821 40.5405 193.847 41.3672 192.567 41.9805C191.287 42.5672 189.714 42.8605 187.847 42.8605ZM210.03 42.4605V12.8605H223.71C225.63 12.8605 227.244 13.1938 228.55 13.8605C229.884 14.5272 230.897 15.4205 231.59 16.5405C232.284 17.6338 232.63 18.8472 232.63 20.1805C232.63 21.4872 232.39 22.5805 231.91 23.4605C231.43 24.3138 230.844 25.0072 230.15 25.5405C229.484 26.0472 228.83 26.3938 228.19 26.5805V26.9005C228.91 27.0605 229.71 27.4072 230.59 27.9405C231.47 28.4738 232.23 29.2338 232.87 30.2205C233.51 31.2072 233.83 32.4872 233.83 34.0605C233.83 35.4472 233.497 36.7805 232.83 38.0605C232.19 39.3405 231.137 40.3938 229.67 41.2205C228.23 42.0472 226.35 42.4605 224.03 42.4605H210.03ZM222.67 18.0205H216.19V24.9005H222.67C224.057 24.9005 225.07 24.5672 225.71 23.9005C226.35 23.2338 226.67 22.4205 226.67 21.4605C226.67 20.5272 226.35 19.7272 225.71 19.0605C225.07 18.3672 224.057 18.0205 222.67 18.0205ZM223.15 29.6205H216.19V37.3005H223.15C224.724 37.3005 225.857 36.9272 226.55 36.1805C227.27 35.4072 227.63 34.4872 227.63 33.4205C227.63 32.3805 227.27 31.4872 226.55 30.7405C225.857 29.9938 224.724 29.6205 223.15 29.6205ZM248.83 42.8605C246.456 42.8605 244.443 42.3538 242.79 41.3405C241.136 40.3005 239.87 38.9538 238.99 37.3005C238.136 35.6205 237.71 33.8072 237.71 31.8605C237.71 29.9138 238.136 28.1138 238.99 26.4605C239.87 24.7805 241.136 23.4338 242.79 22.4205C244.443 21.3805 246.456 20.8605 248.83 20.8605C251.203 20.8605 253.216 21.3805 254.87 22.4205C256.523 23.4338 257.776 24.7805 258.63 26.4605C259.51 28.1138 259.95 29.9138 259.95 31.8605C259.95 33.8072 259.51 35.6205 258.63 37.3005C257.776 38.9538 256.523 40.3005 254.87 41.3405C253.216 42.3538 251.203 42.8605 248.83 42.8605ZM248.83 37.9005C249.896 37.9005 250.79 37.6205 251.51 37.0605C252.256 36.5005 252.83 35.7672 253.23 34.8605C253.63 33.9272 253.83 32.9272 253.83 31.8605C253.83 30.7672 253.63 29.7672 253.23 28.8605C252.83 27.9538 252.256 27.2205 251.51 26.6605C250.79 26.1005 249.896 25.8205 248.83 25.8205C247.763 25.8205 246.856 26.1005 246.11 26.6605C245.363 27.2205 244.79 27.9538 244.39 28.8605C244.016 29.7672 243.83 30.7672 243.83 31.8605C243.83 32.9272 244.016 33.9272 244.39 34.8605C244.79 35.7672 245.363 36.5005 246.11 37.0605C246.856 37.6205 247.763 37.9005 248.83 37.9005ZM274.962 42.8605C272.589 42.8605 270.576 42.3538 268.922 41.3405C267.269 40.3005 266.002 38.9538 265.122 37.3005C264.269 35.6205 263.842 33.8072 263.842 31.8605C263.842 29.9138 264.269 28.1138 265.122 26.4605C266.002 24.7805 267.269 23.4338 268.922 22.4205C270.576 21.3805 272.589 20.8605 274.962 20.8605C277.336 20.8605 279.349 21.3805 281.002 22.4205C282.656 23.4338 283.909 24.7805 284.762 26.4605C285.642 28.1138 286.082 29.9138 286.082 31.8605C286.082 33.8072 285.642 35.6205 284.762 37.3005C283.909 38.9538 282.656 40.3005 281.002 41.3405C279.349 42.3538 277.336 42.8605 274.962 42.8605ZM274.962 37.9005C276.029 37.9005 276.922 37.6205 277.642 37.0605C278.389 36.5005 278.962 35.7672 279.362 34.8605C279.762 33.9272 279.962 32.9272 279.962 31.8605C279.962 30.7672 279.762 29.7672 279.362 28.8605C278.962 27.9538 278.389 27.2205 277.642 26.6605C276.922 26.1005 276.029 25.8205 274.962 25.8205C273.896 25.8205 272.989 26.1005 272.242 26.6605C271.496 27.2205 270.922 27.9538 270.522 28.8605C270.149 29.7672 269.962 30.7672 269.962 31.8605C269.962 32.9272 270.149 33.9272 270.522 34.8605C270.922 35.7672 271.496 36.5005 272.242 37.0605C272.989 37.6205 273.896 37.9005 274.962 37.9005ZM299.371 42.8605C297.611 42.8605 296.157 42.6205 295.011 42.1405C293.864 41.6605 292.944 41.0738 292.251 40.3805C291.584 39.6605 291.077 38.9538 290.731 38.2605C290.411 37.5405 290.197 36.9405 290.091 36.4605C290.011 35.9805 289.971 35.7405 289.971 35.7405H295.611C295.611 35.7405 295.651 35.8738 295.731 36.1405C295.811 36.4072 295.984 36.7138 296.251 37.0605C296.544 37.4072 296.957 37.7138 297.491 37.9805C298.024 38.2472 298.744 38.3805 299.651 38.3805C300.771 38.3805 301.531 38.1538 301.931 37.7005C302.357 37.2472 302.571 36.7938 302.571 36.3405C302.571 35.3805 301.784 34.7405 300.211 34.4205L297.331 33.8605C296.104 33.6205 294.944 33.2738 293.851 32.8205C292.784 32.3405 291.917 31.6872 291.251 30.8605C290.611 30.0072 290.291 28.9138 290.291 27.5805C290.291 26.3005 290.624 25.1538 291.291 24.1405C291.957 23.1272 292.904 22.3272 294.131 21.7405C295.384 21.1538 296.877 20.8605 298.611 20.8605C300.237 20.8605 301.584 21.0872 302.651 21.5405C303.744 21.9672 304.611 22.5138 305.251 23.1805C305.891 23.8205 306.371 24.4738 306.691 25.1405C307.011 25.7805 307.211 26.3272 307.291 26.7805C307.397 27.2072 307.451 27.4205 307.451 27.4205H302.011C302.011 27.4205 301.931 27.2472 301.771 26.9005C301.611 26.5272 301.277 26.1672 300.771 25.8205C300.291 25.4472 299.544 25.2605 298.531 25.2605C297.491 25.2605 296.771 25.4738 296.371 25.9005C295.971 26.3005 295.771 26.7272 295.771 27.1805C295.771 27.7138 295.997 28.1138 296.451 28.3805C296.931 28.6472 297.544 28.8605 298.291 29.0205L301.051 29.5805C303.077 29.9805 304.744 30.6872 306.051 31.7005C307.357 32.6872 308.011 34.1272 308.011 36.0205C308.011 37.3005 307.677 38.4605 307.011 39.5005C306.344 40.5405 305.371 41.3672 304.091 41.9805C302.811 42.5672 301.237 42.8605 299.371 42.8605ZM321.424 42.8605C319.771 42.8605 318.451 42.6205 317.464 42.1405C316.478 41.6338 315.731 41.0072 315.224 40.2605C314.718 39.4872 314.384 38.6738 314.224 37.8205C314.064 36.9672 313.984 36.1805 313.984 35.4605V26.1005H310.384V21.2605H313.984V16.0205H320.064V21.2605H324.584V26.1005H320.064V35.3005C320.064 36.1805 320.291 36.8605 320.744 37.3405C321.224 37.8205 322.011 38.0605 323.104 38.0605C323.584 38.0605 324.024 38.0205 324.424 37.9405C324.824 37.8605 325.024 37.8205 325.024 37.8205V42.5005C325.024 42.5005 324.664 42.5538 323.944 42.6605C323.224 42.7938 322.384 42.8605 321.424 42.8605Z" fill="#1E2D3E"/>
<defs>
<linearGradient id="paint0_linear_55_6831" x1="31.0091" y1="39.6201" x2="49.097" y2="29.7901" gradientUnits="userSpaceOnUse">
<stop stop-color="#F66800"/>
<stop offset="1" stop-color="#F64A00"/>
</linearGradient>
<linearGradient id="paint1_linear_55_6831" x1="2.22006" y1="25.8063" x2="7.98014" y2="20.622" gradientUnits="userSpaceOnUse">
<stop stop-color="#F66800"/>
<stop offset="1" stop-color="#F64A00"/>
</linearGradient>
<linearGradient id="paint2_linear_55_6831" x1="19.2816" y1="9.56423" x2="28.1985" y2="2.13977" gradientUnits="userSpaceOnUse">
<stop stop-color="#F66800"/>
<stop offset="1" stop-color="#F64A00"/>
</linearGradient>
</defs>
</svg>
