<svg width="341" height="63" viewBox="0 0 341 63" fill="none" xmlns="http://www.w3.org/2000/svg">
<path d="M22.2599 52.6513C21.5807 52.0047 21.5807 50.9563 22.2599 50.3096L49.1575 24.7035C51.8745 22.1169 56.2796 22.1169 58.9966 24.7035L64.8643 30.2894C65.5435 30.9361 65.5435 31.9845 64.8643 32.6311L37.9667 58.2373C35.2497 60.8238 30.8446 60.8238 28.1276 58.2373L22.2599 52.6513Z" fill="white"/>
<path d="M4.91978 36.1438C2.20279 33.5572 2.20279 29.3637 4.91977 26.7771L10.7875 21.1912C11.4667 20.5445 12.568 20.5445 13.2472 21.1912L28.8131 36.0097C29.4924 36.6563 29.4924 37.7047 28.8131 38.3513L19.2558 47.4498C18.5765 48.0964 17.4753 48.0964 16.796 47.4498L4.91978 36.1438Z" fill="white"/>
<path d="M19.9415 21.8435C17.2245 19.257 17.2245 15.0634 19.9415 12.4768L31.8177 1.1708C32.497 0.524171 33.5983 0.524171 34.2775 1.1708L46.1537 12.4768C48.8707 15.0634 48.8707 19.257 46.1537 21.8435L34.2775 33.1495C33.5983 33.7961 32.497 33.7961 31.8177 33.1495L19.9415 21.8435Z" fill="white"/>
<path d="M77.2178 42.4604V12.8604H90.8978C92.8178 12.8604 94.4311 13.1938 95.7378 13.8604C97.0711 14.5271 98.0845 15.4204 98.7778 16.5404C99.4711 17.6338 99.8178 18.8471 99.8178 20.1804C99.8178 21.4871 99.5778 22.5804 99.0978 23.4604C98.6178 24.3138 98.0311 25.0071 97.3378 25.5404C96.6711 26.0471 96.0178 26.3938 95.3778 26.5804V26.9004C96.0978 27.0604 96.8978 27.4071 97.7778 27.9404C98.6578 28.4738 99.4178 29.2338 100.058 30.2204C100.698 31.2071 101.018 32.4871 101.018 34.0604C101.018 35.4471 100.684 36.7804 100.018 38.0604C99.3778 39.3404 98.3245 40.3938 96.8578 41.2204C95.4178 42.0471 93.5378 42.4604 91.2178 42.4604H77.2178ZM89.8578 18.0204H83.3778V24.9004H89.8578C91.2445 24.9004 92.2578 24.5671 92.8978 23.9004C93.5378 23.2338 93.8578 22.4204 93.8578 21.4604C93.8578 20.5271 93.5378 19.7271 92.8978 19.0604C92.2578 18.3671 91.2445 18.0204 89.8578 18.0204ZM90.3378 29.6204H83.3778V37.3004H90.3378C91.9111 37.3004 93.0445 36.9271 93.7378 36.1804C94.4578 35.4071 94.8178 34.4871 94.8178 33.4204C94.8178 32.3804 94.4578 31.4871 93.7378 30.7404C93.0445 29.9938 91.9111 29.6204 90.3378 29.6204ZM105.577 42.4604V12.0604H111.657V42.4604H105.577ZM120.301 18.3804C119.234 18.3804 118.367 18.0471 117.701 17.3804C117.034 16.6871 116.701 15.8738 116.701 14.9404C116.701 13.9538 117.034 13.1271 117.701 12.4604C118.367 11.7671 119.234 11.4204 120.301 11.4204C121.314 11.4204 122.167 11.7671 122.861 12.4604C123.554 13.1271 123.901 13.9538 123.901 14.9404C123.901 15.8738 123.554 16.6871 122.861 17.3804C122.167 18.0471 121.314 18.3804 120.301 18.3804ZM117.261 42.4604V21.2604H123.341V42.4604H117.261ZM128.537 42.4604V21.2604H134.617V24.3004H134.817C135.057 23.8738 135.403 23.3938 135.857 22.8604C136.337 22.3271 136.963 21.8604 137.737 21.4604C138.537 21.0604 139.55 20.8604 140.777 20.8604C142.43 20.8604 143.777 21.2471 144.817 22.0204C145.857 22.7671 146.617 23.7404 147.097 24.9404C147.577 26.1138 147.817 27.3538 147.817 28.6604V42.4604H141.737V29.7004C141.737 28.6871 141.457 27.7938 140.897 27.0204C140.363 26.2471 139.497 25.8604 138.297 25.8604C137.39 25.8604 136.67 26.0738 136.137 26.5004C135.603 26.9271 135.217 27.4738 134.977 28.1404C134.737 28.8071 134.617 29.5138 134.617 30.2604V42.4604H128.537ZM161.248 42.8604C159.675 42.8604 158.302 42.5538 157.128 41.9404C155.982 41.3004 155.022 40.4604 154.248 39.4204C153.475 38.3538 152.888 37.1671 152.488 35.8604C152.115 34.5538 151.928 33.2204 151.928 31.8604C151.928 30.5004 152.115 29.1671 152.488 27.8604C152.888 26.5538 153.475 25.3804 154.248 24.3404C155.022 23.2738 155.982 22.4338 157.128 21.8204C158.302 21.1804 159.675 20.8604 161.248 20.8604C162.608 20.8604 163.728 21.0871 164.608 21.5404C165.488 21.9671 166.155 22.4338 166.608 22.9404C167.088 23.4471 167.382 23.7938 167.488 23.9804H167.808V12.0604H173.888V42.4604H167.808V39.7404H167.488C167.382 39.9271 167.088 40.2738 166.608 40.7804C166.155 41.2871 165.488 41.7671 164.608 42.2204C163.728 42.6471 162.608 42.8604 161.248 42.8604ZM163.008 37.9404C164.102 37.9404 165.008 37.6471 165.728 37.0604C166.475 36.4471 167.022 35.6738 167.368 34.7404C167.742 33.8071 167.928 32.8471 167.928 31.8604C167.928 30.8738 167.742 29.9138 167.368 28.9804C167.022 28.0471 166.475 27.2871 165.728 26.7004C165.008 26.0871 164.102 25.7804 163.008 25.7804C161.915 25.7804 160.995 26.0871 160.248 26.7004C159.528 27.2871 158.982 28.0471 158.608 28.9804C158.262 29.9138 158.088 30.8738 158.088 31.8604C158.088 32.8471 158.262 33.8071 158.608 34.7404C158.982 35.6738 159.528 36.4471 160.248 37.0604C160.995 37.6471 161.915 37.9404 163.008 37.9404ZM187.847 42.8604C186.087 42.8604 184.634 42.6204 183.487 42.1404C182.341 41.6604 181.421 41.0738 180.727 40.3804C180.061 39.6604 179.554 38.9538 179.207 38.2604C178.887 37.5404 178.674 36.9404 178.567 36.4604C178.487 35.9804 178.447 35.7404 178.447 35.7404H184.087C184.087 35.7404 184.127 35.8738 184.207 36.1404C184.287 36.4071 184.461 36.7138 184.727 37.0604C185.021 37.4071 185.434 37.7138 185.967 37.9804C186.501 38.2471 187.221 38.3804 188.127 38.3804C189.247 38.3804 190.007 38.1538 190.407 37.7004C190.834 37.2471 191.047 36.7938 191.047 36.3404C191.047 35.3804 190.261 34.7404 188.687 34.4204L185.807 33.8604C184.581 33.6204 183.421 33.2738 182.327 32.8204C181.261 32.3404 180.394 31.6871 179.727 30.8604C179.087 30.0071 178.767 28.9138 178.767 27.5804C178.767 26.3004 179.101 25.1538 179.767 24.1404C180.434 23.1271 181.381 22.3271 182.607 21.7404C183.861 21.1538 185.354 20.8604 187.087 20.8604C188.714 20.8604 190.061 21.0871 191.127 21.5404C192.221 21.9671 193.087 22.5138 193.727 23.1804C194.367 23.8204 194.847 24.4738 195.167 25.1404C195.487 25.7804 195.687 26.3271 195.767 26.7804C195.874 27.2071 195.927 27.4204 195.927 27.4204H190.487C190.487 27.4204 190.407 27.2471 190.247 26.9004C190.087 26.5271 189.754 26.1671 189.247 25.8204C188.767 25.4471 188.021 25.2604 187.007 25.2604C185.967 25.2604 185.247 25.4738 184.847 25.9004C184.447 26.3004 184.247 26.7271 184.247 27.1804C184.247 27.7138 184.474 28.1138 184.927 28.3804C185.407 28.6471 186.021 28.8604 186.767 29.0204L189.527 29.5804C191.554 29.9804 193.221 30.6871 194.527 31.7004C195.834 32.6871 196.487 34.1271 196.487 36.0204C196.487 37.3004 196.154 38.4604 195.487 39.5004C194.821 40.5404 193.847 41.3671 192.567 41.9804C191.287 42.5671 189.714 42.8604 187.847 42.8604ZM210.03 42.4604V12.8604H223.71C225.63 12.8604 227.244 13.1938 228.55 13.8604C229.884 14.5271 230.897 15.4204 231.59 16.5404C232.284 17.6338 232.63 18.8471 232.63 20.1804C232.63 21.4871 232.39 22.5804 231.91 23.4604C231.43 24.3138 230.844 25.0071 230.15 25.5404C229.484 26.0471 228.83 26.3938 228.19 26.5804V26.9004C228.91 27.0604 229.71 27.4071 230.59 27.9404C231.47 28.4738 232.23 29.2338 232.87 30.2204C233.51 31.2071 233.83 32.4871 233.83 34.0604C233.83 35.4471 233.497 36.7804 232.83 38.0604C232.19 39.3404 231.137 40.3938 229.67 41.2204C228.23 42.0471 226.35 42.4604 224.03 42.4604H210.03ZM222.67 18.0204H216.19V24.9004H222.67C224.057 24.9004 225.07 24.5671 225.71 23.9004C226.35 23.2338 226.67 22.4204 226.67 21.4604C226.67 20.5271 226.35 19.7271 225.71 19.0604C225.07 18.3671 224.057 18.0204 222.67 18.0204ZM223.15 29.6204H216.19V37.3004H223.15C224.724 37.3004 225.857 36.9271 226.55 36.1804C227.27 35.4071 227.63 34.4871 227.63 33.4204C227.63 32.3804 227.27 31.4871 226.55 30.7404C225.857 29.9938 224.724 29.6204 223.15 29.6204ZM248.83 42.8604C246.456 42.8604 244.443 42.3538 242.79 41.3404C241.136 40.3004 239.87 38.9538 238.99 37.3004C238.136 35.6204 237.71 33.8071 237.71 31.8604C237.71 29.9138 238.136 28.1138 238.99 26.4604C239.87 24.7804 241.136 23.4338 242.79 22.4204C244.443 21.3804 246.456 20.8604 248.83 20.8604C251.203 20.8604 253.216 21.3804 254.87 22.4204C256.523 23.4338 257.776 24.7804 258.63 26.4604C259.51 28.1138 259.95 29.9138 259.95 31.8604C259.95 33.8071 259.51 35.6204 258.63 37.3004C257.776 38.9538 256.523 40.3004 254.87 41.3404C253.216 42.3538 251.203 42.8604 248.83 42.8604ZM248.83 37.9004C249.896 37.9004 250.79 37.6204 251.51 37.0604C252.256 36.5004 252.83 35.7671 253.23 34.8604C253.63 33.9271 253.83 32.9271 253.83 31.8604C253.83 30.7671 253.63 29.7671 253.23 28.8604C252.83 27.9538 252.256 27.2204 251.51 26.6604C250.79 26.1004 249.896 25.8204 248.83 25.8204C247.763 25.8204 246.856 26.1004 246.11 26.6604C245.363 27.2204 244.79 27.9538 244.39 28.8604C244.016 29.7671 243.83 30.7671 243.83 31.8604C243.83 32.9271 244.016 33.9271 244.39 34.8604C244.79 35.7671 245.363 36.5004 246.11 37.0604C246.856 37.6204 247.763 37.9004 248.83 37.9004ZM274.962 42.8604C272.589 42.8604 270.576 42.3538 268.922 41.3404C267.269 40.3004 266.002 38.9538 265.122 37.3004C264.269 35.6204 263.842 33.8071 263.842 31.8604C263.842 29.9138 264.269 28.1138 265.122 26.4604C266.002 24.7804 267.269 23.4338 268.922 22.4204C270.576 21.3804 272.589 20.8604 274.962 20.8604C277.336 20.8604 279.349 21.3804 281.002 22.4204C282.656 23.4338 283.909 24.7804 284.762 26.4604C285.642 28.1138 286.082 29.9138 286.082 31.8604C286.082 33.8071 285.642 35.6204 284.762 37.3004C283.909 38.9538 282.656 40.3004 281.002 41.3404C279.349 42.3538 277.336 42.8604 274.962 42.8604ZM274.962 37.9004C276.029 37.9004 276.922 37.6204 277.642 37.0604C278.389 36.5004 278.962 35.7671 279.362 34.8604C279.762 33.9271 279.962 32.9271 279.962 31.8604C279.962 30.7671 279.762 29.7671 279.362 28.8604C278.962 27.9538 278.389 27.2204 277.642 26.6604C276.922 26.1004 276.029 25.8204 274.962 25.8204C273.896 25.8204 272.989 26.1004 272.242 26.6604C271.496 27.2204 270.922 27.9538 270.522 28.8604C270.149 29.7671 269.962 30.7671 269.962 31.8604C269.962 32.9271 270.149 33.9271 270.522 34.8604C270.922 35.7671 271.496 36.5004 272.242 37.0604C272.989 37.6204 273.896 37.9004 274.962 37.9004ZM299.371 42.8604C297.611 42.8604 296.157 42.6204 295.011 42.1404C293.864 41.6604 292.944 41.0738 292.251 40.3804C291.584 39.6604 291.077 38.9538 290.731 38.2604C290.411 37.5404 290.197 36.9404 290.091 36.4604C290.011 35.9804 289.971 35.7404 289.971 35.7404H295.611C295.611 35.7404 295.651 35.8738 295.731 36.1404C295.811 36.4071 295.984 36.7138 296.251 37.0604C296.544 37.4071 296.957 37.7138 297.491 37.9804C298.024 38.2471 298.744 38.3804 299.651 38.3804C300.771 38.3804 301.531 38.1538 301.931 37.7004C302.357 37.2471 302.571 36.7938 302.571 36.3404C302.571 35.3804 301.784 34.7404 300.211 34.4204L297.331 33.8604C296.104 33.6204 294.944 33.2738 293.851 32.8204C292.784 32.3404 291.917 31.6871 291.251 30.8604C290.611 30.0071 290.291 28.9138 290.291 27.5804C290.291 26.3004 290.624 25.1538 291.291 24.1404C291.957 23.1271 292.904 22.3271 294.131 21.7404C295.384 21.1538 296.877 20.8604 298.611 20.8604C300.237 20.8604 301.584 21.0871 302.651 21.5404C303.744 21.9671 304.611 22.5138 305.251 23.1804C305.891 23.8204 306.371 24.4738 306.691 25.1404C307.011 25.7804 307.211 26.3271 307.291 26.7804C307.397 27.2071 307.451 27.4204 307.451 27.4204H302.011C302.011 27.4204 301.931 27.2471 301.771 26.9004C301.611 26.5271 301.277 26.1671 300.771 25.8204C300.291 25.4471 299.544 25.2604 298.531 25.2604C297.491 25.2604 296.771 25.4738 296.371 25.9004C295.971 26.3004 295.771 26.7271 295.771 27.1804C295.771 27.7138 295.997 28.1138 296.451 28.3804C296.931 28.6471 297.544 28.8604 298.291 29.0204L301.051 29.5804C303.077 29.9804 304.744 30.6871 306.051 31.7004C307.357 32.6871 308.011 34.1271 308.011 36.0204C308.011 37.3004 307.677 38.4604 307.011 39.5004C306.344 40.5404 305.371 41.3671 304.091 41.9804C302.811 42.5671 301.237 42.8604 299.371 42.8604ZM321.424 42.8604C319.771 42.8604 318.451 42.6204 317.464 42.1404C316.478 41.6338 315.731 41.0071 315.224 40.2604C314.718 39.4871 314.384 38.6738 314.224 37.8204C314.064 36.9671 313.984 36.1804 313.984 35.4604V26.1004H310.384V21.2604H313.984V16.0204H320.064V21.2604H324.584V26.1004H320.064V35.3004C320.064 36.1804 320.291 36.8604 320.744 37.3404C321.224 37.8204 322.011 38.0604 323.104 38.0604C323.584 38.0604 324.024 38.0204 324.424 37.9404C324.824 37.8604 325.024 37.8204 325.024 37.8204V42.5004C325.024 42.5004 324.664 42.5538 323.944 42.6604C323.224 42.7938 322.384 42.8604 321.424 42.8604Z" fill="white"/>
</svg>
